<?xml version="1.0" encoding="utf-8"?>
<!-- Generator: Adobe Illustrator 27.0.0, SVG Export Plug-In . SVG Version: 6.00 Build 0)  -->
<svg version="1.1" id="Layer_1" xmlns="http://www.w3.org/2000/svg" xmlns:xlink="http://www.w3.org/1999/xlink" x="0px" y="0px"
	 viewBox="0 0 35 35" style="enable-background:new 0 0 35 35;" xml:space="preserve">
<style type="text/css">
	.st0{fill:#242359;}
	.st1{fill:#FFFFFF;}
</style>
<g>
	<g>
		<path class="st0" d="M17.2,31.7l-1.9-11.3c0-0.8-0.6-1.5-1.4-1.5l-3.3-0.4c-0.2,0-0.4,0.1-0.5,0.2l-1.5,2H8.5l-1.5-2
			c-0.1-0.2-0.3-0.2-0.5-0.2l-3.1,0.4c-0.8,0-1.4,0.7-1.4,1.5L0.2,31.7c-0.1,0.7,0.4,1.4,1.1,1.6l0.3,0.1C2.3,33.5,3,33,3.2,32.3
			l1.4-8.8l0.1,10.7c0,0.3,0.3,0.6,0.6,0.6h6.9c0.3,0,0.6-0.3,0.6-0.6l-0.1-11.3l1.5,9.3c0.1,0.7,0.8,1.3,1.6,1.1l0.3-0.1
			C16.8,33.2,17.3,32.5,17.2,31.7"/>
		<path class="st0" d="M8.7,18.3c1.9,0,3.4-1.5,3.4-3.4s-1.5-3.4-3.4-3.4S5.3,13,5.3,14.9C5.3,16.7,6.8,18.3,8.7,18.3"/>
	</g>
	<g>
		<path class="st0" d="M34.7,31.7l-1.9-11.3c0-0.8-0.6-1.5-1.4-1.5l-3.3-0.4c-0.2,0-0.4,0.1-0.5,0.2l-1.5,2H26l-1.5-2
			c-0.1-0.2-0.3-0.2-0.5-0.2l-3.1,0.4c-0.8,0-1.4,0.7-1.4,1.5l-1.9,11.3c-0.1,0.7,0.4,1.4,1.1,1.6l0.3,0.1c0.7,0.1,1.4-0.4,1.6-1.1
			l1.4-8.8l0.1,10.7c0,0.3,0.3,0.6,0.6,0.6h6.9c0.3,0,0.6-0.3,0.6-0.6l0-11.3l1.5,9.3c0.1,0.7,0.8,1.3,1.6,1.1l0.3-0.1
			C34.3,33.2,34.8,32.5,34.7,31.7"/>
		<path class="st0" d="M26.2,18.3c1.9,0,3.4-1.5,3.4-3.4s-1.5-3.4-3.4-3.4s-3.4,1.5-3.4,3.4C22.8,16.7,24.3,18.3,26.2,18.3"/>
	</g>
	<path class="st1" d="M8.2,23.2c0-0.1,0.1-0.1,0.1-0.1h1.1c0.1,0,0.1-0.1,0.1-0.1v-1.1c0-0.1,0.1-0.1,0.1-0.1h1.1
		c0.1,0,0.1,0.1,0.1,0.1V23c0,0.1,0.1,0.1,0.1,0.1H12c0.1,0,0.1,0.1,0.1,0.1v1.1c0,0.1-0.1,0.1-0.1,0.1h-1.1c-0.1,0-0.1,0.1-0.1,0.1
		v1.1c0,0.1-0.1,0.1-0.1,0.1H9.6c-0.1,0-0.1-0.1-0.1-0.1v-1.1c0-0.1-0.1-0.1-0.1-0.1H8.3c-0.1,0-0.1-0.1-0.1-0.1S8.2,23.2,8.2,23.2z
		"/>
	<path class="st0" d="M19.9,8.4V4c0,0,0-0.2-0.1-0.4c-0.1-0.3-0.3-0.4-0.7-0.4H9.9c0,0-0.2,0-0.4,0.1C9.2,3.5,9.1,3.7,9.1,4v4.4
		c0,0,0,0.2,0.1,0.4c0.2,0.3,0.4,0.4,0.7,0.4h1.8c0.2,0,0.3,0.1,0.4,0.2c0.1,0.1,0.2,0.2,0.2,0.4v1.9c0,0.3,0.3,0.4,0.5,0.2l2.4-2.4
		c0.1-0.1,0.3-0.2,0.5-0.2H19c0,0,0.2,0,0.4-0.1C19.8,9,19.9,8.8,19.9,8.4"/>
	<path class="st0" d="M27.8,0.2c-0.2-0.1-0.4-0.1-0.4-0.1h-9.2c-0.3,0-0.6,0.1-0.7,0.4c-0.2,0.2-0.2,0.4-0.2,0.4v1.5
		c0,0.2,0.1,0.3,0.3,0.3h1.5c0.7,0,1,0.4,1.2,0.7s0.2,0.6,0.2,0.7v2.1h1c0.2,0,0.4,0.1,0.5,0.2l2.4,2.4c0.2,0.2,0.5,0,0.5-0.3V6.6
		c0-0.2,0.1-0.3,0.2-0.4S25.3,6,25.5,6h1.8c0.3,0,0.6-0.1,0.7-0.4c0.1-0.2,0.1-0.4,0.1-0.4V0.9C28.1,0.5,28,0.3,27.8,0.2"/>
</g>
</svg>
