<?xml version="1.0" encoding="utf-8"?>
<!-- Generator: Adobe Illustrator 27.1.1, SVG Export Plug-In . SVG Version: 6.00 Build 0)  -->
<svg version="1.1" id="Layer_1" xmlns="http://www.w3.org/2000/svg" xmlns:xlink="http://www.w3.org/1999/xlink" x="0px" y="0px"
	 viewBox="0 0 35 35" style="enable-background:new 0 0 35 35;" xml:space="preserve">
<style type="text/css">
	.st0{clip-path:url(#SVGID_00000130608159014915713820000013801764590494896055_);fill:#242359;}
	.st1{clip-path:url(#SVGID_00000133508765521099490300000003634335033735680659_);fill:#242359;}
</style>
<g>
	<g>
		<g>
			<g>
				<defs>
					<rect id="SVGID_1_" x="8.6" y="0.1" width="17.4" height="34.8"/>
				</defs>
				<clipPath id="SVGID_00000071561644712367018800000010536163168964588696_">
					<use xlink:href="#SVGID_1_"  style="overflow:visible;"/>
				</clipPath>
				<path style="clip-path:url(#SVGID_00000071561644712367018800000010536163168964588696_);fill:#242359;" d="M25.2,22.7
					c0,1-0.8,1.8-1.8,1.8h-12c-1,0-1.8-0.8-1.8-1.8V5.3c0-1,0.8-1.8,1.8-1.8h12c1,0,1.8,0.8,1.8,1.8V22.7z M17.4,1
					c0.4,0,0.7,0.3,0.7,0.7s-0.3,0.7-0.7,0.7c-0.4,0-0.7-0.3-0.7-0.7C16.6,1.3,17,1,17.4,1 M25.1,1.5h-6C19,1,18.9,0.7,18.9,0.7
					s0-0.5-0.6-0.5h-0.9h-0.9c-0.5,0-0.6,0.5-0.6,0.5s-0.1,0.4-0.2,0.8h-6c-0.6,0-1,0.5-1,1v22.6c0,0.6,0.5,1,1,1H17v1.2h-0.3
					c-0.1,0-0.2,0.1-0.2,0.2s0.1,0.2,0.2,0.2l0,0v4l0.5,0.4v2.7h0.4v-2.7l0.5-0.4v-4l0,0c0.1,0,0.2-0.1,0.2-0.2s-0.1-0.2-0.2-0.2
					h-0.3v-1.2h7.3c0.6,0,1-0.5,1-1V2.5C26.1,1.9,25.6,1.5,25.1,1.5"/>
			</g>
		</g>
		<g>
			<g>
				<defs>
					<rect id="SVGID_00000087375835360562922320000012532391180364765104_" x="8.6" y="0.1" width="17.4" height="34.8"/>
				</defs>
				<clipPath id="SVGID_00000147188760609902299140000012958931811867024806_">
					<use xlink:href="#SVGID_00000087375835360562922320000012532391180364765104_"  style="overflow:visible;"/>
				</clipPath>
				<path style="clip-path:url(#SVGID_00000147188760609902299140000012958931811867024806_);fill:#242359;" d="M23.2,10.4H11.5
					c-0.7,0-1.2,0.5-1.2,1.2v10.9c0,0.7,0.5,1.2,1.2,1.2h11.7c0.7,0,1.2-0.5,1.2-1.2V11.6C24.4,10.9,23.9,10.4,23.2,10.4z"/>
			</g>
		</g>
	</g>
	<g>
	</g>
</g>
</svg>
