<?xml version="1.0" encoding="utf-8"?>
<!-- Generator: Adobe Illustrator 27.0.0, SVG Export Plug-In . SVG Version: 6.00 Build 0)  -->
<svg version="1.1" id="Layer_1" xmlns="http://www.w3.org/2000/svg" xmlns:xlink="http://www.w3.org/1999/xlink" x="0px" y="0px"
	 viewBox="0 0 35 35" style="enable-background:new 0 0 35 35;" xml:space="preserve">
<style type="text/css">
	.st0{fill:#27255F;}
	.st1{fill:none;}
	.st2{fill:#242359;}
	.st3{fill:#FFFFFF;}
</style>
<g>
	<path class="st0" d="M9.6,18.2"/>
	<line class="st1" x1="15.8" y1="6.6" x2="15.5" y2="6.6"/>
	<path class="st2" d="M28.5,21.6c0-1.6,0.4-1.9,0.4-4.6c0-2.7-2.3-5.1-5.3-5.4c-0.2,0-0.4-0.2-0.4-0.5v-0.4c0-1.6-1.4-2.8-3.1-2.8
		c0,0,0,0-0.1,0c-1.7,0-3.1,1.3-3.1,2.9v8.5c0,2-0.3,3.7-0.6,4.5c-0.1,0.3,0.1,0.5,0.4,0.5h11.9c0.3,0,0.5-0.3,0.4-0.6
		C28.8,23.2,28.5,22.4,28.5,21.6 M24.9,17.5h-4.7c-1.1,0-1.9-0.9-1.9-1.9v-5.2c0-0.2,0.1-0.3,0.3-0.3c0.2,0,0.3,0.1,0.3,0.3v5.2
		c0,0.7,0.6,1.3,1.3,1.3h4.7c0.7,0,1.2-0.5,1.2-1.2s-0.5-1.2-1.2-1.2h-3.2c-0.3,0-0.6-0.3-0.6-0.6v-2.5c0-0.2,0.1-0.3,0.3-0.3
		c0.2,0,0.3,0.1,0.3,0.3v2.5h3.2c1,0,1.8,0.8,1.8,1.8C26.7,16.7,25.9,17.5,24.9,17.5"/>
	<path class="st2" d="M19.9,1.6c-1.5,0-2.8,1.3-2.8,2.8c0,1.3-0.6,1.8-0.8,1.9c0,0,0,0,0,0.1c0.1,0.1,0.5,0.7,1.8,0.8
		c0.3,0,0.6,0.1,1,0.1c0.2,0,0.5,0,0.8,0c1.5-0.1,2.7-1.2,2.8-2.6C22.8,3,21.5,1.6,19.9,1.6"/>
	<path class="st2" d="M21.7,24.9h-2.6c-0.2,0-0.4,0.2-0.4,0.4v7.8c0,0.8,0.7,1.6,1.7,1.6c0,0,0,0,0.1,0c0.9,0,1.7-0.7,1.7-1.6v-7.8
		C22.1,25.1,21.9,24.9,21.7,24.9z"/>
	<path class="st2" d="M32.9,9.2l-4.3-7.5c0,0-0.3-0.6-0.8-0.6c-0.2,0-0.5,0.1-0.7,0.6l-4,7c0.4,0.5,0.7,1.1,0.7,1.8h8.4
		c0,0,1,0,1-0.7l0,0C33.1,9.7,33,9.4,32.9,9.2"/>
	<path class="st2" d="M16.3,19.3v-8.5c0-0.1,0-0.3,0-0.4c0-0.3,0.2-0.8,0.3-1c0.3-0.6,0.8-1.2,1.5-1.5H18c-1.7-0.2-2.2-1-2.2-1.2
		h-0.1l0,0l0,0l-1.1-0.1c-0.1,0-0.3,0-0.4,0.2l-1.4,1.8c0,0,0,0-0.1,0l-1.4-1.8c-0.1-0.1-0.2-0.2-0.4-0.2L8.1,6.9
		c-0.7,0-1.2,0.7-1.3,1.3l-1.7,10c-0.1,0.7,0.3,1.3,1,1.4h0.3c0.7,0.1,1.3-0.3,1.4-1L9,10.8v0.6v21.9c0,0.9,0.8,1.6,1.8,1.6
		s1.8-0.7,1.8-1.6v-14h0.6v14c0,0.9,0.8,1.6,1.8,1.6s1.8-0.7,1.8-1.6v-8c0-0.2-0.2-0.4-0.4-0.4h-0.5c-0.3,0-0.5-0.3-0.4-0.5l0.1-0.2
		C15.8,23.8,16.3,21.7,16.3,19.3z"/>
	<path class="st2" d="M15.7,3.1c0,1.6-1.3,2.8-2.8,2.8c-1.6,0-2.8-1.3-2.8-2.8s1.3-2.8,2.8-2.8C14.5,0.3,15.7,1.5,15.7,3.1"/>
	<g>
		<path class="st3" d="M27.7,9.6L27.7,9.6c0.5,0,0.8-0.3,0.8-0.7l0,0c0-0.4-0.3-0.7-0.7-0.7h-0.1c-0.4,0-0.7,0.3-0.7,0.7l0,0
			C27,9.3,27.3,9.6,27.7,9.6z M27.7,7.5L27.7,7.5c0.2,0,0.4-0.1,0.4-0.3l0.1-0.8c0.2-1.2,0.3-2.2,0.3-3c0-0.2-0.2-0.4-0.4-0.4h-0.9
			c-0.2,0-0.4,0.2-0.4,0.4c0,0.9,0.1,1.8,0.3,3l0.1,0.8C27.4,7.4,27.6,7.5,27.7,7.5z"/>
	</g>
</g>
</svg>
