<?xml version="1.0" encoding="utf-8"?>
<!-- Generator: Adobe Illustrator 27.0.0, SVG Export Plug-In . SVG Version: 6.00 Build 0)  -->
<svg version="1.1" id="Layer_1" xmlns="http://www.w3.org/2000/svg" xmlns:xlink="http://www.w3.org/1999/xlink" x="0px" y="0px"
	 viewBox="0 0 35 35" style="enable-background:new 0 0 35 35;" xml:space="preserve">
<style type="text/css">
	.st0{clip-path:url(#SVGID_00000003808008898359212650000006522819769326080687_);fill:#242359;}
	.st1{clip-path:url(#SVGID_00000136371283637384169270000014473204141998193800_);fill:#242359;}
	.st2{fill:#FFFFFF;}
</style>
<g>
	<g>
		<g>
			<defs>
				<rect id="SVGID_1_" x="8.6" y="0.1" width="17.4" height="34.8"/>
			</defs>
			<clipPath id="SVGID_00000132795290694408932160000008886494892569089200_">
				<use xlink:href="#SVGID_1_"  style="overflow:visible;"/>
			</clipPath>
			<path style="clip-path:url(#SVGID_00000132795290694408932160000008886494892569089200_);fill:#242359;" d="M25.2,22.7
				c0,1-0.8,1.8-1.8,1.8h-12c-1,0-1.8-0.8-1.8-1.8V5.3c0-1,0.8-1.8,1.8-1.8h12c1,0,1.8,0.8,1.8,1.8C25.2,5.3,25.2,22.7,25.2,22.7z
				 M17.4,1c0.4,0,0.7,0.3,0.7,0.7s-0.3,0.7-0.7,0.7c-0.4,0-0.7-0.3-0.7-0.7C16.6,1.3,17,1,17.4,1 M25.1,1.5h-6
				C19,1,18.9,0.7,18.9,0.7s0-0.5-0.6-0.5h-0.9h-0.9c-0.5,0-0.6,0.5-0.6,0.5s-0.1,0.4-0.2,0.8h-6c-0.6,0-1,0.5-1,1v22.6
				c0,0.6,0.5,1,1,1H17v1.2h-0.3c-0.1,0-0.2,0.1-0.2,0.2s0.1,0.2,0.2,0.2l0,0v4l0.5,0.4v2.7h0.4v-2.7l0.5-0.4v-4l0,0
				c0.1,0,0.2-0.1,0.2-0.2s-0.1-0.2-0.2-0.2h-0.3v-1.2h7.3c0.6,0,1-0.5,1-1V2.5C26.1,1.9,25.6,1.5,25.1,1.5"/>
		</g>
		<g>
			<defs>
				<rect id="SVGID_00000142887584099412172730000013252427545706974871_" x="8.6" y="0.1" width="17.4" height="34.8"/>
			</defs>
			<clipPath id="SVGID_00000059993646397688644430000012427998132225279398_">
				<use xlink:href="#SVGID_00000142887584099412172730000013252427545706974871_"  style="overflow:visible;"/>
			</clipPath>
			<path style="clip-path:url(#SVGID_00000059993646397688644430000012427998132225279398_);fill:#242359;" d="M23.2,10.4H11.5
				c-0.7,0-1.2,0.5-1.2,1.2v10.9c0,0.7,0.5,1.2,1.2,1.2h11.7c0.7,0,1.2-0.5,1.2-1.2V11.6C24.4,10.9,23.9,10.4,23.2,10.4z"/>
		</g>
	</g>
	<g>
		<path class="st2" d="M17.4,21.7L17.4,21.7c0.7,0,1.2-0.5,1.2-1.1l0,0c0-0.6-0.5-1.1-1.1-1.1h-0.1c-0.6,0-1.1,0.5-1.1,1.1l0,0
			C16.3,21.2,16.8,21.7,17.4,21.7z M17.4,18.6h0.1c0.3,0,0.5-0.2,0.5-0.5l0.2-1.2c0.3-1.9,0.4-3.3,0.4-4.6c0-0.3-0.2-0.6-0.5-0.6
			h-1.3c-0.3,0-0.5,0.3-0.5,0.6c0,1.4,0.2,2.7,0.4,4.6l0.2,1.2C16.9,18.4,17.1,18.6,17.4,18.6z"/>
	</g>
</g>
</svg>
