<?xml version="1.0" encoding="utf-8"?>
<!-- Generator: Adobe Illustrator 27.0.0, SVG Export Plug-In . SVG Version: 6.00 Build 0)  -->
<svg version="1.1" id="Layer_1" xmlns="http://www.w3.org/2000/svg" xmlns:xlink="http://www.w3.org/1999/xlink" x="0px" y="0px"
	 viewBox="0 0 35 35" style="enable-background:new 0 0 35 35;" xml:space="preserve">
<style type="text/css">
	.st0{fill:#242359;}
	.st1{fill:#FFFFFF;}
</style>
<g>
	<g>
		<g>
			<path class="st0" d="M30.3,30.5l-2.8-17c0-1.1-1-2.2-2.1-2.2l-4.9-0.5c-0.3,0-0.6,0.1-0.8,0.3l-2.3,3h-0.1l-2.3-3
				c-0.2-0.2-0.5-0.4-0.8-0.3l-4.6,0.5c-1.2,0-2.1,1.1-2.1,2.2l-2.8,17c-0.2,1.1,0.6,2.2,1.7,2.3l0.5,0.1c1.1,0.2,2.2-0.6,2.3-1.7
				l2.1-13.1l0.2,16c0,0.5,0.4,0.8,0.9,0.8h10.3c0.5,0,0.9-0.4,0.9-0.8l0.1-16.9l2.2,13.9c0.2,1.1,1.2,1.9,2.3,1.7l0.5-0.1
				C29.7,32.6,30.5,31.6,30.3,30.5"/>
			<path class="st0" d="M17.5,10.3c2.8,0,5.1-2.3,5.1-5.1s-2.3-5.1-5.1-5.1s-5.1,2.3-5.1,5.1C12.4,8.1,14.7,10.3,17.5,10.3"/>
		</g>
	</g>
	<path class="st1" d="M26.6,24.7c0.4,0,0.8-0.4,0.8-0.8s-0.4-0.8-0.8-0.8s-0.8,0.4-0.8,0.8C25.8,24.4,26.1,24.7,26.6,24.7"/>
	<path class="st1" d="M8.6,24.5c0.3,0,0.6-0.3,0.6-0.6c0-0.3-0.3-0.6-0.6-0.6S8,23.6,8,23.9C8,24.3,8.2,24.5,8.6,24.5"/>
	<path class="st1" d="M13.5,14.1c0.4,0,0.8-0.4,0.8-0.8s-0.4-0.8-0.8-0.8c-0.4,0-0.8,0.4-0.8,0.8C12.7,13.7,13.1,14.1,13.5,14.1"/>
	<path class="st1" d="M27.3,20.9c0.3,0,0.6-0.3,0.6-0.6c0-0.3-0.3-0.6-0.6-0.6s-0.6,0.3-0.6,0.6C26.8,20.7,27,20.9,27.3,20.9"/>
	<path class="st1" d="M14.3,18c0.4,0,0.8-0.4,0.8-0.8s-0.4-0.8-0.8-0.8c-0.4,0-0.8,0.4-0.8,0.8C13.5,17.7,13.9,18,14.3,18"/>
	<path class="st1" d="M9.5,20.5c0.4,0,0.8-0.4,0.8-0.8s-0.4-0.8-0.8-0.8s-0.8,0.4-0.8,0.8C8.7,20.2,9.1,20.5,9.5,20.5"/>
	<path class="st1" d="M15.9,15.6c0.3,0,0.6-0.3,0.6-0.6c0-0.3-0.3-0.6-0.6-0.6s-0.6,0.3-0.6,0.6C15.3,15.3,15.6,15.6,15.9,15.6"/>
	<path class="st1" d="M27.3,28.3c0.4,0,0.8-0.4,0.8-0.8c0-0.4-0.4-0.8-0.8-0.8c-0.4,0-0.8,0.4-0.8,0.8
		C26.6,27.9,26.9,28.3,27.3,28.3"/>
	<path class="st1" d="M19.8,29.7c0.3,0,0.6-0.3,0.6-0.6c0-0.3-0.3-0.6-0.6-0.6s-0.6,0.3-0.6,0.6C19.2,29.4,19.5,29.7,19.8,29.7"/>
	<path class="st1" d="M6.8,27.1c0.4,0,0.8-0.4,0.8-0.8s-0.4-0.8-0.8-0.8S6,25.9,6,26.3C6,26.7,6.4,27.1,6.8,27.1"/>
	<path class="st1" d="M20.5,33.8c0.4,0,0.8-0.4,0.8-0.8c0-0.4-0.4-0.8-0.8-0.8c-0.4,0-0.8,0.4-0.8,0.8C19.7,33.4,20,33.8,20.5,33.8"
		/>
	<path class="st1" d="M22,31.2c0.4,0,0.8-0.4,0.8-0.8c0-0.4-0.4-0.8-0.8-0.8c-0.4,0-0.8,0.4-0.8,0.8C21.2,30.8,21.6,31.2,22,31.2"/>
</g>
</svg>
