<?xml version="1.0" encoding="utf-8"?>
<!-- Generator: Adobe Illustrator 27.0.0, SVG Export Plug-In . SVG Version: 6.00 Build 0)  -->
<svg version="1.1" id="Layer_1" xmlns="http://www.w3.org/2000/svg" xmlns:xlink="http://www.w3.org/1999/xlink" x="0px" y="0px"
	 viewBox="0 0 35 35" style="enable-background:new 0 0 35 35;" xml:space="preserve">
<style type="text/css">
	.st0{clip-path:url(#SVGID_00000123437129251884952360000000348026618425674152_);}
	.st1{fill:#242359;}
	.st2{fill:#FFFFFF;}
</style>
<g>
	<g>
		<g>
			<g>
				<g>
					<defs>
						<rect id="SVGID_1_" x="2.8" y="0.2" width="25.9" height="34.6"/>
					</defs>
					<clipPath id="SVGID_00000123418338707659559130000000027503138317052843_">
						<use xlink:href="#SVGID_1_"  style="overflow:visible;"/>
					</clipPath>
					<g style="clip-path:url(#SVGID_00000123418338707659559130000000027503138317052843_);">
						<path class="st1" d="M11.7,34.3c0.1,0.3,0.5,0.4,0.7,0.4c0,0,8.8,0,11.7,0c0.4,0,0.6-0.1,0.9-0.5c0,0,0.2-0.4,0.6-1
							c0.5-0.7,0.9-1.7,1.3-2.5c0.6-1.5,1.3-3,1.5-4.4c0.3-0.9,0.3-1.5,0.4-2.7V9.9c0-0.9-0.6-1.5-1.5-1.5h-0.5
							c-0.9,0-1.5,0.6-1.5,1.5v6.9c0,0.3-0.3,0.5-0.5,0.5s-0.5-0.3-0.5-0.5V5.1c0-1-0.8-1.8-1.8-1.8h-0.6c-1,0-1.8,0.8-1.8,1.8V15
							c0,0.3-0.3,0.5-0.5,0.5c-0.3,0-0.5-0.3-0.5-0.5V2c0-1-0.8-1.8-1.8-1.8h-0.5C15.8,0.2,15,1,15,2v11.9c0,0.3-0.3,0.5-0.5,0.5
							S14,14.1,14,13.9V4c0-1-0.8-1.8-1.8-1.8h-0.5c-1,0-1.8,0.8-1.8,1.8v19.3l-1-1.5c-1.5-2.2-4.1-2.9-5.7-1.5
							c-0.4,0.3-0.5,0.9-0.1,1.4L11.7,34.3z"/>
					</g>
				</g>
			</g>
		</g>
	</g>
	<g>
		<path class="st2" d="M15.6,30.9L15.6,30.9c-0.4-0.1-0.5-0.4-0.5-0.6l0.4-1.4l-2.1,0.5c-0.2,0.1-0.5-0.1-0.5-0.3c0-0.1,0-0.2,0-0.3
			c0,0,0,0,0-0.1l1.1-2.3l-1.3,0.2h-0.1c-0.1,0-0.1,0-0.2,0c-0.2-0.1-0.4-0.3-0.3-0.5l0.6-2c0.1-0.2,0.3-0.4,0.5-0.3
			c0.2,0.1,0.4,0.3,0.3,0.5l-0.4,1.4l1.4-0.2c0.2,0,0.5,0.1,0.5,0.4c0,0,0,0,0,0.1s0,0.1,0,0.2l-1.1,2.3l1.9-0.4
			c0.2-0.1,0.5,0.1,0.5,0.3c0,0.1,0,0.2,0,0.3l0,0l-0.6,2C15.9,30.7,15.7,30.9,15.6,30.9z M20.5,26.8c-0.2,0-0.3-0.1-0.4-0.2
			c-0.1-0.2,0-0.5,0.2-0.6l1.3-0.7l-1.8-1.2c0,0-0.1,0-0.1-0.1c-0.1,0-0.1-0.1-0.1-0.2c-0.1-0.2,0-0.5,0.3-0.6l2.5-0.9l-1-0.9
			c-0.1-0.1-0.1-0.1-0.1-0.2c-0.1-0.2,0-0.4,0.2-0.5l1.9-1c0.2-0.1,0.5,0,0.6,0.2c0.1,0.2,0,0.5-0.2,0.6l-1.4,0.7l1.1,0.9l0.1,0.1
			c0,0,0.1,0.1,0.1,0.2c0.1,0.2,0,0.5-0.3,0.6L21,23.8l1.7,1.1c0.1,0,0.1,0.1,0.1,0.1s0,0,0,0.1c0.1,0.2,0,0.5-0.2,0.6l-1.9,1
			C20.6,26.8,20.5,26.8,20.5,26.8z"/>
	</g>
</g>
</svg>
