<?xml version="1.0" encoding="utf-8"?>
<!-- Generator: Adobe Illustrator 27.0.0, SVG Export Plug-In . SVG Version: 6.00 Build 0)  -->
<svg version="1.1" id="Layer_1" xmlns="http://www.w3.org/2000/svg" xmlns:xlink="http://www.w3.org/1999/xlink" x="0px" y="0px"
	 viewBox="0 0 35 35" style="enable-background:new 0 0 35 35;" xml:space="preserve">
<style type="text/css">
	.st0{clip-path:url(#SVGID_00000154408338497892555960000016713221240344659099_);fill:#1E1A5A;}
	.st1{clip-path:url(#SVGID_00000127759171390496233480000015623453007509772730_);fill:#1E1A5A;}
	.st2{clip-path:url(#SVGID_00000002355133641242431850000001943646374599724473_);fill:#1E1A5A;}
	.st3{fill:#1E1A5A;}
</style>
<g>
	<g>
		<g>
			<defs>
				<rect id="SVGID_1_" x="10.2" y="0.2" width="13.7" height="34.7"/>
			</defs>
			<clipPath id="SVGID_00000107548259897207323030000002440924542982318232_">
				<use xlink:href="#SVGID_1_"  style="overflow:visible;"/>
			</clipPath>
			<path style="clip-path:url(#SVGID_00000107548259897207323030000002440924542982318232_);fill:#1E1A5A;" d="M13.4,33.1
				c0,0.2,0,0.4,0.1,0.6c0.3,0.6,0.9,1,1.6,1.1c0,0,0,0,0.1,0c1,0,1.8-0.7,1.8-1.7v-8.3c0-0.2-0.1-0.3-0.3-0.3h-3
				c-0.2,0-0.3,0.1-0.3,0.3V33.1z"/>
		</g>
		<g>
			<defs>
				<rect id="SVGID_00000173877137025463634540000016170698058749393809_" x="10.2" y="0.2" width="13.7" height="34.7"/>
			</defs>
			<clipPath id="SVGID_00000000182536576985318570000007563691409681757349_">
				<use xlink:href="#SVGID_00000173877137025463634540000016170698058749393809_"  style="overflow:visible;"/>
			</clipPath>
		</g>
		<g>
			<defs>
				<rect id="SVGID_00000114784072733734616780000015142179389649700748_" x="10.2" y="0.2" width="13.7" height="34.7"/>
			</defs>
			<clipPath id="SVGID_00000023248037308235178340000004410709478281522068_">
				<use xlink:href="#SVGID_00000114784072733734616780000015142179389649700748_"  style="overflow:visible;"/>
			</clipPath>
			<path style="clip-path:url(#SVGID_00000023248037308235178340000004410709478281522068_);fill:#1E1A5A;" d="M19.8,16.7h-5.2
				c-1.1,0-2-0.9-2-2V9c0-0.2,0.1-0.3,0.3-0.3s0.3,0.1,0.3,0.3v5.7c0,0.8,0.6,1.4,1.4,1.4h5.2c0.7,0,1.2-0.6,1.2-1.2
				c0-0.7-0.6-1.2-1.2-1.2h-3.7c-0.3,0-0.6-0.3-0.6-0.6v-2.9c0-0.2,0.1-0.3,0.3-0.3c0.2,0,0.3,0.1,0.3,0.3V13l3.7,0
				c1,0,1.8,0.8,1.8,1.8C21.6,15.8,20.8,16.7,19.8,16.7 M23.1,20.7c0-1.6,0.5-1.5,0.5-4.5s-2.5-5.4-5.6-5.7c-0.1,0-0.2,0-0.2-0.1
				c-0.1-0.1-0.1-0.2-0.1-0.2V9.7c0-0.7-0.3-1.4-0.7-1.9c-0.6-0.7-1.5-1.1-2.5-1.1c0,0,0,0-0.1,0c-0.3,0-0.6,0-0.9,0.1
				C12,7.2,11,8.4,11,9.7v8.7c0,2.1-0.5,4.3-0.7,5.1c0,0.2,0.1,0.4,0.3,0.4H19h4.4c0.2,0,0.4-0.2,0.3-0.4
				C23.5,22.9,23.1,21.8,23.1,20.7"/>
		</g>
		<g>
			<defs>
				<rect id="SVGID_00000111166820106696756290000013054217183050301835_" x="10.2" y="0.2" width="13.7" height="34.7"/>
			</defs>
			<clipPath id="SVGID_00000158735599000530740750000004189906598479287183_">
				<use xlink:href="#SVGID_00000111166820106696756290000013054217183050301835_"  style="overflow:visible;"/>
			</clipPath>
			<path style="clip-path:url(#SVGID_00000158735599000530740750000004189906598479287183_);fill:#1E1A5A;" d="M12.3,5.9
				c0.3,0,0.6,0.1,1,0.1c0.2,0,0.5,0,0.8,0C15.7,5.8,17,4.6,17,3c0-1.6-1.3-2.9-2.9-2.9c-1.6,0-2.9,1.3-2.9,2.9
				c0,1.4-0.7,1.9-0.8,1.9c0,0,0,0,0,0C10.6,5.1,11,5.7,12.3,5.9"/>
		</g>
	</g>
	<g>
		<path class="st3" d="M22,10.4L22,10.4c0.6,0,1-0.4,1-0.9v0c0-0.5-0.4-0.9-0.9-0.9H22c-0.5,0-0.9,0.4-0.9,0.9v0
			C21,10,21.5,10.4,22,10.4z M22,7.8L22,7.8c0.3,0,0.5-0.2,0.5-0.4l0.1-1.1C22.9,4.7,23,3.5,23,2.4c0-0.3-0.2-0.5-0.5-0.5l-1.1,0
			c-0.3,0-0.5,0.2-0.5,0.5c0,1.2,0.2,2.3,0.4,3.9l0.1,1.1C21.6,7.6,21.8,7.8,22,7.8z"/>
	</g>
</g>
</svg>
