<?xml version="1.0" encoding="utf-8"?>
<!-- Generator: Adobe Illustrator 27.0.0, SVG Export Plug-In . SVG Version: 6.00 Build 0)  -->
<svg version="1.1" id="Layer_1" xmlns="http://www.w3.org/2000/svg" xmlns:xlink="http://www.w3.org/1999/xlink" x="0px" y="0px"
	 viewBox="0 0 35 35" style="enable-background:new 0 0 35 35;" xml:space="preserve">
<style type="text/css">
	.st0{clip-path:url(#SVGID_00000145020624593355770320000016538809335526712716_);fill:#27255F;}
	.st1{fill:#27255F;}
	.st2{clip-path:url(#SVGID_00000000211941639842167890000015357367744738376067_);fill:#27255F;}
	.st3{clip-path:url(#SVGID_00000035496649967705089920000012342799576445925543_);fill:#27255F;}
	.st4{clip-path:url(#SVGID_00000176724638962611279950000003945627243345087121_);fill:#27255F;}
	.st5{clip-path:url(#SVGID_00000134967307107658163280000012759105496801753739_);fill:#27255F;}
	.st6{clip-path:url(#SVGID_00000070836289864161564570000000285410687336542118_);fill:#27255F;}
	.st7{clip-path:url(#SVGID_00000058575424696822979830000011861431682592215483_);fill:#242359;}
	.st8{clip-path:url(#SVGID_00000133489330862238122860000006316182136240399786_);fill:#242359;}
</style>
<g>
	<g>
		<g>
			<defs>
				<rect id="SVGID_1_" x="0.2" y="0.5" width="34.6" height="34.2"/>
			</defs>
			<clipPath id="SVGID_00000101817935751360303940000017698470656997575310_">
				<use xlink:href="#SVGID_1_"  style="overflow:visible;"/>
			</clipPath>
			<path style="clip-path:url(#SVGID_00000101817935751360303940000017698470656997575310_);fill:#27255F;" d="M14.3,26.6
				c0-0.3-0.2-0.5-0.5-0.5H2.7c-0.2,0-0.3-0.2-0.3-0.4V15.1c0-0.2,0.1-0.4,0.3-0.4h11.6v-3.1h-0.6V7.7H3.5v1.7H2.2c-1.1,0-2,0.9-2,2
				v19.3c0,1.1,0.9,2,2,2h12.1c0,0,0,0,0-0.1V26.6z"/>
		</g>
	</g>
	<rect x="4.6" y="17.1" class="st1" width="9.7" height="0.9"/>
	<rect x="4.6" y="20" class="st1" width="9.7" height="0.9"/>
	<rect x="4.6" y="22.8" class="st1" width="9.7" height="0.9"/>
	<g>
		<g>
			<defs>
				<rect id="SVGID_00000081646002801128454350000013116271132122497409_" x="0.2" y="0.5" width="34.6" height="34.2"/>
			</defs>
			<clipPath id="SVGID_00000023974015744207517130000016140806181520013199_">
				<use xlink:href="#SVGID_00000081646002801128454350000013116271132122497409_"  style="overflow:visible;"/>
			</clipPath>
			<path style="clip-path:url(#SVGID_00000023974015744207517130000016140806181520013199_);fill:#27255F;" d="M15.3,11.6v21
				c0,1.1,0.9,2.1,2.1,2.1h14.3c1.2,0,2.1-0.9,2.1-2.1v-21H15.3z M32.1,27.6c0,0.7-0.6,1.3-1.3,1.3H18.4c-0.7,0-1.3-0.6-1.3-1.3
				V15.8c0-0.7,0.6-1.3,1.3-1.3h12.3c0.7,0,1.3,0.6,1.3,1.3L32.1,27.6L32.1,27.6z"/>
		</g>
		<g>
			<defs>
				<rect id="SVGID_00000122722599090557331160000007888545620259285936_" x="0.2" y="0.5" width="34.6" height="34.2"/>
			</defs>
			<clipPath id="SVGID_00000177443177382412006640000014394829322291979705_">
				<use xlink:href="#SVGID_00000122722599090557331160000007888545620259285936_"  style="overflow:visible;"/>
			</clipPath>
			<path style="clip-path:url(#SVGID_00000177443177382412006640000014394829322291979705_);fill:#27255F;" d="M23.7,18.5
				c-0.2,0-0.5,0-0.7,0s-0.4,0-0.5,0v1.3c0.4,0,0.9,0,1.3-0.1c0.3-0.1,0.4-0.3,0.4-0.6C24.1,18.7,23.9,18.5,23.7,18.5"/>
		</g>
		<g>
			<defs>
				<rect id="SVGID_00000046304287073043476680000012140876507762130085_" x="0.2" y="0.5" width="34.6" height="34.2"/>
			</defs>
			<clipPath id="SVGID_00000129192549193109260140000004308124567581425295_">
				<use xlink:href="#SVGID_00000046304287073043476680000012140876507762130085_"  style="overflow:visible;"/>
			</clipPath>
			<path style="clip-path:url(#SVGID_00000129192549193109260140000004308124567581425295_);fill:#27255F;" d="M30.7,15.5H18.4
				c-0.1,0-0.3,0.1-0.3,0.3v11.8c0,0.1,0.1,0.3,0.3,0.3h12.3c0.1,0,0.3-0.1,0.3-0.3V15.8C31,15.7,30.9,15.5,30.7,15.5 M28.3,25.6
				c-0.5,0-1,0-1.5,0c-0.1,0-0.1,0-0.2-0.1c-0.2-0.4-0.5-0.8-0.7-1.3c-0.3,0.4-0.6,0.9-0.8,1.3c-0.1,0.1-0.1,0.1-0.2,0.1
				c-0.5,0-1,0-1.5,0c0-0.1,0.1-0.1,0.1-0.1c0.4-0.6,0.9-1.3,1.3-1.9c0.1-0.1,0.1-0.2,0-0.2c-0.6-0.8-1-1.4-1.5-2.3
				c-0.1-0.2-0.3-0.3-0.5-0.3c-0.1,0-0.1,0-0.2,0v2.4h-1.7v-5.8H21c1,0,2.1,0,3.1,0c0.2,0,0.5,0,0.7,0.1c0.8,0.1,1.2,0.8,1.2,1.5
				c0,0.8-0.5,1.4-1.3,1.5h-0.1c0.5,0.7,0.9,1.4,1.4,2.1c0-0.1,0.1-0.1,0.1-0.2c0.2-0.3,0.4-0.7,0.6-1l0.1-0.1c0.5,0,1,0,1.6,0
				c0,0.1-0.1,0.1-0.1,0.1c-0.4,0.6-0.8,1.2-1.2,1.7c-0.1,0.1-0.1,0.1,0,0.2c0.4,0.6,0.9,1.3,1.3,1.9l0.1,0.1
				C28.4,25.6,28.3,25.6,28.3,25.6"/>
		</g>
	</g>
	<g>
		<g>
			<defs>
				<rect id="SVGID_00000168074928440056515530000001822355107484023426_" x="0.2" y="0.5" width="34.6" height="34.2"/>
			</defs>
			<clipPath id="SVGID_00000132063443620809017830000010898734888192679344_">
				<use xlink:href="#SVGID_00000168074928440056515530000001822355107484023426_"  style="overflow:visible;"/>
			</clipPath>
			<path style="clip-path:url(#SVGID_00000132063443620809017830000010898734888192679344_);fill:#27255F;" d="M33.2,3.4H15.9
				c-0.9,0-1.6,0.7-1.6,1.6v5.7c0,0,0,0.1,0.1,0.1h1h18.5h1c0,0,0.1,0,0.1-0.1V5C34.8,4.2,34.1,3.4,33.2,3.4 M16.7,5.2
				c0,0-0.3,0.3-0.3,0.9v3.3c0,0.2-0.2,0.4-0.4,0.4s-0.4-0.2-0.4-0.4V6.1c0-0.8,0.4-1.3,0.6-1.5l0,0c0.1,0,0.1-0.1,0.2-0.1
				c0.2,0,0.4,0.2,0.4,0.4C16.8,5,16.8,5.1,16.7,5.2 M18.9,5.2c0,0-0.3,0.3-0.3,0.9v3.3c0,0.2-0.2,0.4-0.4,0.4s-0.4-0.2-0.4-0.4V6.1
				c0-0.8,0.4-1.3,0.6-1.5l0,0c0.1,0,0.1-0.1,0.2-0.1c0.2,0,0.4,0.2,0.4,0.4C19,5,19,5.1,18.9,5.2 M21.8,5.2c0,0-0.3,0.3-0.3,0.9
				v3.3c0,0.2-0.2,0.4-0.4,0.4s-0.4-0.2-0.4-0.4V6.1c0-0.8,0.4-1.3,0.6-1.5l0,0c0.1,0,0.1-0.1,0.2-0.1c0.2,0,0.4,0.2,0.4,0.4
				C22,5,21.9,5.1,21.8,5.2 M32.7,9.4L32.7,9.4L32.7,9.4c0,0.3-0.2,0.4-0.4,0.4c-0.2,0-0.4-0.2-0.4-0.4l0,0l0,0V6.1
				c0-0.6-0.3-0.8-0.3-0.9l0,0c-0.1-0.1-0.1-0.2-0.1-0.3c0-0.2,0.2-0.4,0.4-0.4c0.1,0,0.2,0.1,0.3,0.1c0.2,0.2,0.6,0.7,0.6,1.4
				L32.7,9.4L32.7,9.4z"/>
		</g>
		<g>
			<defs>
				<rect id="SVGID_00000067928249809071063260000003836768792059571900_" x="0.2" y="0.5" width="34.6" height="34.2"/>
			</defs>
			<clipPath id="SVGID_00000048461428051997651290000001958588091980240268_">
				<use xlink:href="#SVGID_00000067928249809071063260000003836768792059571900_"  style="overflow:visible;"/>
			</clipPath>
			<path style="clip-path:url(#SVGID_00000048461428051997651290000001958588091980240268_);fill:#27255F;" d="M13.6,5.1
				c0-1.3,1.1-2.3,2.3-2.3h1v-1c0-0.7-0.6-1.3-1.3-1.3H3.3C2.6,0.5,2,1.1,2,1.8v4.7h0.8h10.9L13.6,5.1L13.6,5.1z"/>
		</g>
	</g>
	<g>
		<g>
			<g>
				<defs>
					<rect id="SVGID_00000026121329660480550700000016357693863220235155_" x="0.2" y="0.5" width="34.6" height="34.2"/>
				</defs>
				<clipPath id="SVGID_00000053506528032832827310000005090279763445553583_">
					<use xlink:href="#SVGID_00000026121329660480550700000016357693863220235155_"  style="overflow:visible;"/>
				</clipPath>
				<path style="clip-path:url(#SVGID_00000053506528032832827310000005090279763445553583_);fill:#242359;" d="M15.3,11.6v21
					c0,1.1,0.9,2.1,2.1,2.1h14.3c1.2,0,2.1-0.9,2.1-2.1v-21H15.3z M32.1,27.6c0,0.7-0.6,1.3-1.3,1.3H18.4c-0.7,0-1.3-0.6-1.3-1.3
					V15.8c0-0.7,0.6-1.3,1.3-1.3h12.3c0.7,0,1.3,0.6,1.3,1.3L32.1,27.6L32.1,27.6z"/>
			</g>
			<g>
				<defs>
					<rect id="SVGID_00000088100441134841931870000012357368478256010150_" x="0.2" y="0.5" width="34.6" height="34.2"/>
				</defs>
				<clipPath id="SVGID_00000034051006516701554390000014356398156455322506_">
					<use xlink:href="#SVGID_00000088100441134841931870000012357368478256010150_"  style="overflow:visible;"/>
				</clipPath>
				<path style="clip-path:url(#SVGID_00000034051006516701554390000014356398156455322506_);fill:#242359;" d="M33.8,10.8h1
					c0,0,0.1,0,0.1-0.1V5c0-0.9-0.7-1.6-1.6-1.6H15.9c-0.9,0-1.6,0.7-1.6,1.6v5.7c0,0,0,0.1,0.1,0.1h1 M16.7,5.2
					c0,0-0.3,0.3-0.3,0.9v3.3c0,0.2-0.2,0.4-0.4,0.4s-0.4-0.2-0.4-0.4V6.1c0-0.8,0.4-1.3,0.6-1.5l0,0c0.1,0,0.1-0.1,0.2-0.1
					c0.2,0,0.4,0.2,0.4,0.4C16.8,5,16.8,5.1,16.7,5.2 M18.9,5.2c0,0-0.3,0.3-0.3,0.9v3.3c0,0.2-0.2,0.4-0.4,0.4s-0.4-0.2-0.4-0.4
					V6.1c0-0.8,0.4-1.3,0.6-1.5l0,0c0.1,0,0.1-0.1,0.2-0.1c0.2,0,0.4,0.2,0.4,0.4C19,5,19,5.1,18.9,5.2 M21.8,5.2
					c0,0-0.3,0.3-0.3,0.9v3.3c0,0.2-0.2,0.4-0.4,0.4s-0.4-0.2-0.4-0.4V6.1c0-0.8,0.4-1.3,0.6-1.5l0,0c0.1,0,0.1-0.1,0.2-0.1
					c0.2,0,0.4,0.2,0.4,0.4C22,5,21.9,5.1,21.8,5.2 M32.7,9.4L32.7,9.4L32.7,9.4c0,0.3-0.2,0.4-0.4,0.4c-0.2,0-0.4-0.2-0.4-0.4l0,0
					l0,0V6.1c0-0.6-0.3-0.8-0.3-0.9l0,0c-0.1-0.1-0.1-0.2-0.1-0.3c0-0.2,0.2-0.4,0.4-0.4c0.1,0,0.2,0.1,0.3,0.1
					c0.2,0.2,0.6,0.7,0.6,1.4L32.7,9.4L32.7,9.4z"/>
			</g>
		</g>
	</g>
</g>
</svg>
