<?xml version="1.0" encoding="utf-8"?>
<!-- Generator: Adobe Illustrator 27.0.0, SVG Export Plug-In . SVG Version: 6.00 Build 0)  -->
<svg version="1.1" id="Layer_1" xmlns="http://www.w3.org/2000/svg" xmlns:xlink="http://www.w3.org/1999/xlink" x="0px" y="0px"
	 viewBox="0 0 35 35" style="enable-background:new 0 0 35 35;" xml:space="preserve">
<style type="text/css">
	.st0{clip-path:url(#SVGID_00000130638705250739729210000009521004865742204816_);fill:#231E5B;}
</style>
<g>
	<defs>
		<rect id="SVGID_1_" x="0.2" y="3.3" width="34.5" height="29"/>
	</defs>
	<clipPath id="SVGID_00000002370151944871061120000006668684616484360850_">
		<use xlink:href="#SVGID_1_"  style="overflow:visible;"/>
	</clipPath>
	<path style="clip-path:url(#SVGID_00000002370151944871061120000006668684616484360850_);fill:#231E5B;" d="M29.3,8.8
		c-1.8-2.9-4.6-5.1-6.2-5.4c-2.5-0.5-2.9,7.5-2.9,7.5l0.5,0.4l0,0l1.8,2.2l1.5-1l0.9-1.2c0.1-0.2,0.2-0.3,0.4-0.3
		c0.3,0,0.5,0.2,0.5,0.5c0,0.1,0,0.2-0.1,0.3l0,0l-1.1,1.4l-1.6,1.2l1.3,2.7l2.3,0.2l3.1-1.4l0,0c0.1,0,0.1,0,0.2,0
		c0.2,0,0.4,0.2,0.4,0.4c0,0.2-0.2,0.4-0.4,0.4c0,0,0,0,0,0l-2.2,0.9l0,0l0.9,0.6l1.6,1.1l0,0c0.2,0.1,0.3,0.2,0.3,0.4
		c0,0.2-0.2,0.4-0.4,0.4c-0.1,0-0.3-0.1-0.3-0.2l-1.4-0.9l0.3,0.9l0.8,1.3c0.1,0.1,0.1,0.2,0.1,0.3c0,0.2-0.2,0.4-0.4,0.4
		c-0.2,0-0.4-0.1-0.4-0.3l-0.9-1.4l-0.7-1.9l-2.4-0.3l2.9,5.2l1.3,0.9l0,0c0.1,0.1,0.2,0.2,0.2,0.3c0,0.2-0.2,0.4-0.4,0.4
		c-0.1,0-0.2,0-0.2-0.1l0,0l-0.8-0.6l-0.1,0.9c0,0,0,0,0,0c0,0.2-0.2,0.4-0.4,0.4c-0.2,0-0.4-0.2-0.4-0.4c0,0,0-0.1,0-0.1l0.1-1.4
		l-2.7-4.5l-0.5,1.7l0.6,1.5l0.3,1.2c0,0.1,0.1,0.1,0.1,0.2c0,0.2-0.2,0.4-0.4,0.4c-0.2,0-0.4-0.1-0.4-0.3l0,0l-0.3-1.3l-0.4-0.7
		l-0.4,1.1L23,24c0,0.1,0.1,0.1,0.1,0.2c0,0.2-0.2,0.4-0.4,0.4c-0.2,0-0.4-0.1-0.4-0.3h0l-0.3-1.1l0.5-1.4l0.9-3.9l-1.6-3.4
		l-1.6-1.9c0,0-0.4,7.5,0.4,11.6c0.6,3.1,2.4,4.7,4.3,6c2.4,1.6,9.4,2.9,9.7,1.7C35.1,29.4,35,17.9,29.3,8.8"/>
	<path style="clip-path:url(#SVGID_00000002370151944871061120000006668684616484360850_);fill:#231E5B;" d="M5.7,8.9
		c1.7-3,4.6-5.2,6.2-5.5c2.5-0.5,2.9,7.5,2.9,7.5l-0.5,0.4l0,0l-1.8,2.2l-1.5-1l-0.9-1.2C10,11.1,9.9,11,9.7,11
		c-0.3,0-0.5,0.2-0.5,0.5c0,0.1,0,0.2,0.1,0.3l0,0l1.1,1.4l1.6,1.2l-1.3,2.7l-2.3,0.2L5.3,16l0,0c-0.1,0-0.1,0-0.2,0
		c-0.2,0-0.4,0.2-0.4,0.4c0,0.2,0.2,0.4,0.4,0.4c0,0,0,0,0,0l2.2,0.9l0,0l-0.9,0.6l-1.6,1.1l0,0c-0.2,0.1-0.3,0.2-0.3,0.4
		c0,0.2,0.2,0.4,0.4,0.4c0.1,0,0.3-0.1,0.3-0.2l1.4-1L6.4,20l-0.8,1.3c-0.1,0.1-0.1,0.2-0.1,0.3c0,0.2,0.2,0.4,0.4,0.4
		c0.2,0,0.4-0.1,0.4-0.3l0.9-1.4l0.7-1.9l2.4-0.3l-2.9,5.2L6,24.3l0,0c-0.1,0.1-0.2,0.2-0.2,0.3C5.8,24.8,6,25,6.3,25
		c0.1,0,0.2,0,0.2-0.1l0,0l0.8-0.6l0.1,0.9c0,0,0,0,0,0c0,0.2,0.2,0.4,0.4,0.4c0.2,0,0.4-0.2,0.4-0.4c0,0,0-0.1,0-0.1l-0.1-1.4
		l2.7-4.5l0.5,1.7l-0.6,1.5l-0.3,1.2c0,0.1-0.1,0.1-0.1,0.2c0,0.2,0.2,0.4,0.4,0.4c0.2,0,0.4-0.1,0.4-0.3l0,0l0.3-1.3l0.4-0.7
		l0.4,1.1L12.1,24c0,0.1-0.1,0.1-0.1,0.2c0,0.2,0.2,0.4,0.4,0.4c0.2,0,0.4-0.1,0.4-0.3h0l0.3-1.1l-0.5-1.4l-0.9-3.9l1.6-3.4l1.6-1.9
		c0,0,0.4,7.5-0.4,11.6c-0.6,3.1-2.4,4.7-4.3,6c-2.4,1.6-9.4,2.9-9.7,1.7C-0.1,29.4-0.5,19.6,5.7,8.9"/>
</g>
</svg>
