<?xml version="1.0" encoding="utf-8"?>
<!-- Generator: Adobe Illustrator 27.0.0, SVG Export Plug-In . SVG Version: 6.00 Build 0)  -->
<svg version="1.1" id="Layer_1" xmlns="http://www.w3.org/2000/svg" xmlns:xlink="http://www.w3.org/1999/xlink" x="0px" y="0px"
	 viewBox="0 0 35 35" style="enable-background:new 0 0 35 35;" xml:space="preserve">
<style type="text/css">
	.st0{clip-path:url(#SVGID_00000118377119728448768640000006489396909233504945_);fill:#252159;}
	.st1{clip-path:url(#SVGID_00000167397383693605071560000002042860021528085949_);fill:#252159;}
	.st2{fill:#FFFFFF;}
	.st3{fill:#27245F;}
</style>
<g>
	<g>
		<g>
			<defs>
				<rect id="SVGID_1_" x="0.1" y="1.6" width="34.8" height="31.8"/>
			</defs>
			<clipPath id="SVGID_00000162309752361086050540000000632252845335896235_">
				<use xlink:href="#SVGID_1_"  style="overflow:visible;"/>
			</clipPath>
			<path style="clip-path:url(#SVGID_00000162309752361086050540000000632252845335896235_);fill:#252159;" d="M32.6,13.3l-23.3,0
				v16.4H8.4c-1.1,0-1.9-0.9-1.9-1.9v-0.1H6.4c-1.1,0-1.9-0.9-1.9-1.9v-0.1c-1,0-1.9-0.9-1.9-1.9V6.4h23.2c-0.2-1.2-1.2-2.2-2.5-2.2
				H11.7V2.7c0-0.6-0.5-1.1-1.1-1.1H1.3c-0.6,0-1.1,0.5-1.1,1.1v21.5c0,0.5,0.2,1,0.5,1.4l7.2,6.9c0.4,0.5,1,0.8,0.9,0.8h24
				c2.1,0,2.3-1,2.3-2.3V15.6C34.9,14.3,33.9,13.3,32.6,13.3"/>
		</g>
		<g>
			<defs>
				<rect id="SVGID_00000098928542768680837520000014794733334068966026_" x="0.1" y="1.6" width="34.8" height="31.8"/>
			</defs>
			<clipPath id="SVGID_00000169524770608309408930000007790696275546133683_">
				<use xlink:href="#SVGID_00000098928542768680837520000014794733334068966026_"  style="overflow:visible;"/>
			</clipPath>
			<path style="clip-path:url(#SVGID_00000169524770608309408930000007790696275546133683_);fill:#252159;" d="M4.5,8.4h23.1
				c-0.2-0.6-0.8-1.1-1.5-1.1H3.5v16.4c0,0.5,0.4,1,1,1V8.4z"/>
			<path style="clip-path:url(#SVGID_00000169524770608309408930000007790696275546133683_);fill:#252159;" d="M6.4,10.4h23.1
				c-0.2-0.6-0.8-1.1-1.5-1.1H5.5v16.4c0,0.5,0.4,1,1,1V10.4z"/>
			<path style="clip-path:url(#SVGID_00000169524770608309408930000007790696275546133683_);fill:#252159;" d="M8.4,12.4h23.1
				c-0.2-0.6-0.8-1.1-1.5-1.1H7.5v16.4c0,0.5,0.4,1,1,1V12.4z"/>
		</g>
	</g>
	<polygon class="st2" points="25.3,15.7 19.1,15.7 14.7,20.1 14.7,26.3 19.1,30.7 25.3,30.7 29.7,26.3 29.7,20.1 	"/>
	<g>
		<path class="st3" d="M22.1,28.1L22.1,28.1c0.7,0,1.2-0.5,1.2-1.1v0c0-0.6-0.5-1.1-1.1-1.1h-0.1c-0.6,0-1.1,0.5-1.1,1.1v0
			C21,27.6,21.5,28.1,22.1,28.1z M22.2,25h0.1c0.3,0,0.5-0.2,0.5-0.5l0.2-1.2c0.3-1.9,0.4-3.2,0.4-4.6c0-0.3-0.2-0.5-0.5-0.5l-1.3,0
			c-0.3,0-0.5,0.2-0.5,0.5c0,1.3,0.2,2.7,0.4,4.6l0.2,1.2C21.7,24.8,21.9,25,22.2,25z"/>
	</g>
</g>
</svg>
