<?xml version="1.0" encoding="utf-8"?>
<!-- Generator: Adobe Illustrator 27.0.0, SVG Export Plug-In . SVG Version: 6.00 Build 0)  -->
<svg version="1.1" id="Layer_1" xmlns="http://www.w3.org/2000/svg" xmlns:xlink="http://www.w3.org/1999/xlink" x="0px" y="0px"
	 viewBox="0 0 35 35" style="enable-background:new 0 0 35 35;" xml:space="preserve">
<style type="text/css">
	.st0{clip-path:url(#SVGID_00000069394160071254067310000017445888629752469665_);fill:#231E5B;}
	.st1{clip-path:url(#SVGID_00000069394160071254067310000017445888629752469665_);fill:#FFFFFF;}
	.st2{fill:#FFFFFF;}
	.st3{fill:#231E5B;}
</style>
<g>
	<g>
		<g>
			<defs>
				<rect id="SVGID_1_" x="0.3" y="9.8" width="34.4" height="18.4"/>
			</defs>
			<clipPath id="SVGID_00000043428781658267124790000016693865703136568993_">
				<use xlink:href="#SVGID_1_"  style="overflow:visible;"/>
			</clipPath>
			<path style="clip-path:url(#SVGID_00000043428781658267124790000016693865703136568993_);fill:#231E5B;" d="M17.5,9.8
				c-7.1,0-13.4,3.4-17,8.5c-0.3,0.5-0.3,1,0,1.3c3.6,5.2,9.9,8.5,17,8.5c7.1,0,13.4-3.4,17-8.5c0.3-0.4,0.3-0.9,0-1.3
				C30.9,13.2,24.6,9.8,17.5,9.8"/>
			<path style="clip-path:url(#SVGID_00000043428781658267124790000016693865703136568993_);fill:#231E5B;" d="M17.5,12.5
				c3.6,0,6.5,2.9,6.5,6.5c0,3.6-2.9,6.5-6.5,6.5S11,22.6,11,19C11,15.4,13.9,12.5,17.5,12.5"/>
			<path style="clip-path:url(#SVGID_00000043428781658267124790000016693865703136568993_);fill:#FFFFFF;" d="M10.8,13.3
				c-1.3,1.5-2.1,3.5-2.1,5.7c0,2.2,0.8,4.2,2.1,5.7c-3.2-1.2-6-3.2-7.9-5.7C4.8,16.5,7.6,14.5,10.8,13.3"/>
			<path style="clip-path:url(#SVGID_00000043428781658267124790000016693865703136568993_);fill:#FFFFFF;" d="M24.2,13.3
				c3.2,1.2,6,3.2,7.9,5.7c-2,2.5-4.7,4.5-7.9,5.7c1.3-1.5,2.1-3.5,2.1-5.7S25.5,14.9,24.2,13.3"/>
			<path style="clip-path:url(#SVGID_00000043428781658267124790000016693865703136568993_);fill:#FFFFFF;" d="M17.5,16.3
				c1.5,0,2.7,1.2,2.7,2.7s-1.2,2.7-2.7,2.7c-1.5,0-2.7-1.2-2.7-2.7S15.9,16.3,17.5,16.3"/>
		</g>
		<g>
			<defs>
				<path id="SVGID_00000136386628685840617400000009420526931731353257_" d="M17.5,9.8c-7.1,0-13.4,3.4-17,8.5
					c-0.3,0.5-0.3,1,0,1.3c3.6,5.2,9.9,8.5,17,8.5c7.1,0,13.4-3.4,17-8.5c0.1-0.2,0.2-0.4,0.2-0.6v0c0-0.2-0.1-0.4-0.2-0.6
					C30.9,13.2,24.6,9.8,17.5,9.8z"/>
			</defs>
			<clipPath id="SVGID_00000079450373522206948640000001259786680729634751_">
				<use xlink:href="#SVGID_00000136386628685840617400000009420526931731353257_"  style="overflow:visible;"/>
			</clipPath>
		</g>
	</g>
	<g>
		<g>
			<path class="st2" d="M28.1,0.9l-6.5,11.3c-0.1,0.1,0,0.3,0.1,0.3h13.1L28.1,0.9z"/>
			<path class="st3" d="M22.9,11.8h10.4c0.1,0,0.2-0.1,0.1-0.2l-5.2-9c-0.1-0.1-0.2-0.1-0.2,0l-5.2,9C22.7,11.7,22.8,11.8,22.9,11.8
				z"/>
		</g>
		<g>
			<g>
				<path class="st2" d="M28.1,11L28.1,11c0.4,0,0.7-0.3,0.7-0.7v0c0-0.4-0.3-0.7-0.7-0.7h0c-0.4,0-0.7,0.3-0.7,0.7v0
					C27.4,10.7,27.7,11,28.1,11z M28.1,9.1L28.1,9.1c0.2,0,0.4-0.1,0.4-0.3l0.1-0.8c0.2-1.1,0.2-2,0.3-2.8c0-0.2-0.1-0.3-0.3-0.3
					l-0.8,0c-0.2,0-0.3,0.2-0.3,0.3c0,0.8,0.1,1.6,0.3,2.8l0.1,0.8C27.8,9,27.9,9.1,28.1,9.1z"/>
			</g>
		</g>
	</g>
</g>
</svg>
