<?xml version="1.0" encoding="utf-8"?>
<!-- Generator: Adobe Illustrator 27.0.0, SVG Export Plug-In . SVG Version: 6.00 Build 0)  -->
<svg version="1.1" id="Layer_1" xmlns="http://www.w3.org/2000/svg" xmlns:xlink="http://www.w3.org/1999/xlink" x="0px" y="0px"
	 viewBox="0 0 35 35" style="enable-background:new 0 0 35 35;" xml:space="preserve">
<style type="text/css">
	.st0{fill:#242359;}
	.st1{clip-path:url(#SVGID_00000037652097185108565580000015887860569147350154_);fill:#242359;}
	.st2{clip-path:url(#SVGID_00000122718472894281622720000002604072103275072899_);fill:#232056;}
</style>
<g>
	<g>
		<path class="st0" d="M15.9,34.5c0,0.2,0.2,0.4,0.4,0.4h2c0.2,0,0.4-0.2,0.4-0.4v-2.9c0-0.2-0.2-0.4-0.4-0.4h-2
			c-0.2,0-0.4,0.2-0.4,0.4V34.5z"/>
	</g>
	<g>
		<g>
			<defs>
				<rect id="SVGID_1_" x="6.8" y="0.2" width="20.8" height="34.7"/>
			</defs>
			<clipPath id="SVGID_00000168079261106904295790000015592094899379332252_">
				<use xlink:href="#SVGID_1_"  style="overflow:visible;"/>
			</clipPath>
			<path style="clip-path:url(#SVGID_00000168079261106904295790000015592094899379332252_);fill:#242359;" d="M24,12.9V13v0.1
				 M24,13.1L24,13.1c-0.1,2.2-3.1-0.1-6.8-0.1s-6.7,2.3-6.8,0.1v-4v-1c0-2.2,3-4,6.8-4c3.7,0,6.8,1.8,6.8,4c0,0.1,0,0.7,0,0.7v4"/>
		</g>
		<g>
			<defs>
				<rect id="SVGID_00000099628335423428113910000017402529026218619544_" x="6.8" y="0.2" width="20.8" height="34.7"/>
			</defs>
			<clipPath id="SVGID_00000122711234782796886540000002799395955917896105_">
				<use xlink:href="#SVGID_00000099628335423428113910000017402529026218619544_"  style="overflow:visible;"/>
			</clipPath>
			<path style="clip-path:url(#SVGID_00000122711234782796886540000002799395955917896105_);fill:#232056;" d="M24.8,1.7
				c-1.6-0.9-3.9-1.5-7.6-1.5S11.6,0.8,10,1.7C8.3,2.6,6.9,4,6.9,6.8v15.4c0,4.7,1.6,8.4,10.4,8.4c9.1,0,10.4-3.4,10.4-8.4V6.3
				C27.6,3.5,26.5,2.7,24.8,1.7 M10.9,22.6c-1.1,0-1.9-0.9-1.9-1.9s0.9-1.9,1.9-1.9c1.1,0,1.9,0.9,1.9,1.9S12,22.6,10.9,22.6
				 M17.2,27c-1.5,0-2.7-1.2-2.7-2.7s1.2-2.7,2.7-2.7s2.7,1.2,2.7,2.7C19.9,25.8,18.7,27,17.2,27 M23.5,22.6c-1.1,0-1.9-0.9-1.9-1.9
				s0.9-1.9,1.9-1.9c1.1,0,1.9,0.9,1.9,1.9C25.4,21.8,24.6,22.6,23.5,22.6 M25.8,14.5c0,0.1,0,0.1,0,0.2s0,0.1,0,0.2l0,0l0,0
				c-0.1,3.1-3.9-0.1-8.6-0.1S8.8,18,8.6,14.9V9.3V7.9c0-3.1,3.8-5.6,8.6-5.6s8.6,2.5,8.6,5.6c0,0.1,0,1,0,1S25.8,14.5,25.8,14.5z"
				/>
		</g>
	</g>
</g>
</svg>
